<svg xmlns="http://www.w3.org/2000/svg" xmlns:xlink="http://www.w3.org/1999/xlink" viewBox="0 0 229.27 74"><defs><style>.cls-1{fill:url(#linear-gradient);}.cls-2{fill:#fff;}.cls-3{fill:#27205b;}</style><linearGradient id="linear-gradient" x1="8.11" y1="62.61" x2="59.31" y2="11.42" gradientUnits="userSpaceOnUse"><stop offset="0" stop-color="#76b6fe"/><stop offset="1" stop-color="#765bfe"/></linearGradient></defs><title>Pintel_Light</title><g id="Layer_2" data-name="Layer 2"><g id="Layer_1-2" data-name="Layer 1"><path class="cls-1" d="M0,22.88c0-2.82,2.27-6.29,4.72-7.7L29.42,1.06a10.1,10.1,0,0,1,9,0L62.76,15.18A9.62,9.62,0,0,1,67,22.88V51.12a9.59,9.59,0,0,1-4.21,7.7L38.35,72.94a9.81,9.81,0,0,1-8.86,0L4.69,58.82C2.23,57.41,0,53.94,0,51.12Z"/><path class="cls-2" d="M48.39,32a9.91,9.91,0,0,1-1.56,5.6,10.18,10.18,0,0,1-4.42,3.66,16.26,16.26,0,0,1-6.78,1.3h-3a1,1,0,0,0-1,1v7.88a1,1,0,0,1-1,1H22.15a1,1,0,0,1-1-1v-4c0-4.9,3.9-9,11.73-12.52L34,34.34l1.17,4.23a.25.25,0,0,0,.46,0l6.19-10.74a.24.24,0,0,0-.21-.37H29.27a.25.25,0,0,0-.17.43L32.32,31c-2.61,1.34-5.69,2.21-7.16,2-3.1-.38-4-3.77-4-7V22.42a1,1,0,0,1,1-1H35.63a16.4,16.4,0,0,1,6.78,1.28,9.66,9.66,0,0,1,6,9.28Z"/><path class="cls-3" d="M92.52,40.34H83.11V52h-6V21.52H92.52a9.22,9.22,0,0,1,9,9.41A9.23,9.23,0,0,1,92.52,40.34ZM83.11,26.85V35h9c1.68,0,3.45-1.11,3.45-4.08s-1.77-4.08-3.45-4.08Z"/><path class="cls-3" d="M110.49,52h-5.43V29.25h5.43Zm-2.74-26.45a3,3,0,1,1,3-3A3,3,0,0,1,107.75,25.55Z"/><path class="cls-3" d="M131.13,29.78c4.08,1.82,6.34,6.24,6.34,10.56V52H132V40.19a5.53,5.53,0,0,0-5.56-5.52H126a5.69,5.69,0,0,0-5,5.71V52l-5.43,0V29.25h5.43v2.83a6.87,6.87,0,0,1,1.29-1.39,7.52,7.52,0,0,1,5-1.73,9.81,9.81,0,0,1,3.74.72C131,29.73,131,29.78,131.13,29.78Z"/><path class="cls-3" d="M149.73,48.26h.62v3.79h-3.21a4.78,4.78,0,0,1-4.8-4.8V32.9H140V29.25h2.36V21.52h5.47v7.73h2.54V32.9h-2.54V46.34A1.93,1.93,0,0,0,149.73,48.26Z"/><path class="cls-3" d="M176.24,40.67a10.53,10.53,0,0,1-.1,1.25H157.57a6.8,6.8,0,0,0,12,3h5.9a11.92,11.92,0,1,1,.82-4.27Zm-18.34-2.4h12.72a6.89,6.89,0,0,0-6.38-4.41A6.79,6.79,0,0,0,157.9,38.27Z"/><path class="cls-3" d="M187.42,48.16H188V52h-3.21a4.78,4.78,0,0,1-4.76-4.8V21.52h5.43V46.29A1.91,1.91,0,0,0,187.42,48.16Z"/><path class="cls-3" d="M220.48,52l-2.88-7.39H201.71L198.88,52h-3l11.86-30.48h3.94L223.5,52Zm-17.81-9.74h14l-7-18.15Z"/><path class="cls-3" d="M229.27,52h-2.69V21.52h2.69Z"/><circle class="cls-3" cx="192.5" cy="50.5" r="1.5"/></g></g></svg>